
            <svg xmlns="http://www.w3.org/2000/svg">
                <filter id="grayscale">
                    <feColorMatrix type="saturate" values="0"/>
                </filter>
                <g filter="url(#grayscale)">
                    <svg xmlns="http://www.w3.org/2000/svg" viewBox="20.00000000000003 182.09013470794022 534.990190527305 210.82122144944512"> <svg xmlns="http://www.w3.org/2000/svg" xmlns:xlink="http://www.w3.org/1999/xlink" version="1.1" id="Layer_1" x="90.00000000000003" y="252.09013470794022" viewBox="71.84739685058594 67.10000610351562 356.23980712890625 365.79998779296875" xml:space="preserve" height="69.60651554427768" width="67.78732793148785" preserveAspectRatio="xMinYMin" enable-background="new 0 0 500 500" style="overflow: visible;"><path class="st0" d="M200.2,117.3c0-27.7,22.5-50.2,50.2-50.2s50.2,22.5,50.2,50.2s-22.5,50.2-50.2,50.2S200.2,145,200.2,117.3z   M296.7,225.7l92.3-52l-21.4-38l-92.3,52c-15.4,8.7-34.6,8.7-50,0.1l-92.9-52.1l-21.3,38.1l92.9,52.1c14.3,8,30.3,12,46.3,12  C266.3,237.8,282.4,233.8,296.7,225.7z M334.2,315c-13.5,24.2-4.9,54.7,19.2,68.3c24.2,13.5,54.7,4.9,68.3-19.2  c13.5-24.2,4.9-54.7-19.2-68.3C378.3,282.3,347.8,290.9,334.2,315z M260.7,327l0.2,105.9l43.6-0.1l-0.2-105.9  c-0.1-17.7,9.3-34.4,24.4-43.6l90.9-53.4L398,192.6L306,246c-14,8.5-25.3,20.5-33.1,34.5C265,294.5,260.7,310.5,260.7,327z   M97.5,295.8c-24.2,13.5-32.8,44.1-19.2,68.3c13.5,24.2,44.1,32.8,68.3,19.2c24.2-13.5,32.8-44.1,19.2-68.3  C152.2,290.9,121.7,282.3,97.5,295.8z M227.1,280.5c-7.8-14-19.1-26-33.1-34.5l-90.8-53.4l-22.7,37.2l90.8,53.4  c15.1,9.2,24.5,26,24.4,43.6l-0.2,105.9l43.6,0.1l0.2-105.9C239.3,310.5,235,294.5,227.1,280.5z" style="fill: #FFA300; fill-opacity: 1;"></path></svg> <svg xmlns="http://www.w3.org/2000/svg" x="169.42018320308625" y="268.811353868567" viewBox="2.319999933242798 13.229999542236328 315.57000732421875 54.10000228881836" height="54.10000228881836" width="315.57000732421875" style="overflow: visible;"><g fill="#00529B" fill-opacity="1" style=""><path d="M24.36 53.57L22.78 53.57Q20.46 48.30 18.09 43.05Q15.71 37.81 13.45 32.43L13.45 32.43Q12.71 30.74 12.00 29.03Q11.28 27.31 10.62 25.57Q9.97 23.83 9.28 22.09L9.28 22.09Q9.28 22.67 9.25 23.25Q9.23 23.83 9.23 24.41L9.23 24.41Q9.17 26.31 9.10 28.97Q9.02 31.64 8.91 34.67Q8.81 37.70 8.75 40.73Q8.70 43.76 8.65 46.45L8.65 46.45Q8.59 47.61 8.57 48.77Q8.54 49.93 8.44 50.93L8.44 50.93Q9.44 50.88 10.41 50.83Q11.39 50.78 12.39 50.72L12.39 50.72L12.39 53.04L2.32 53.04L2.32 51.30Q3.95 51.25 4.72 50.59Q5.48 49.93 5.69 48.83Q5.91 47.72 5.96 46.45L5.96 46.45L6.96 22.41Q7.01 21.35 7.04 20.30Q7.07 19.25 7.12 18.24L7.12 18.24Q6.17 18.30 5.22 18.32Q4.27 18.35 3.32 18.40L3.32 18.40L3.32 16.13L11.39 16.13L20.46 37.07Q21.14 38.65 21.80 40.23Q22.46 41.81 23.17 43.39Q23.89 44.98 24.57 46.61L24.57 46.61L24.68 46.61Q25.26 45.19 26.05 43.21Q26.84 41.23 27.37 39.81L27.37 39.81Q29.69 34.01 32.19 28.18Q34.69 22.36 37.12 16.13L37.12 16.13L44.92 16.13L44.92 17.87Q43.61 17.82 42.76 18.38Q41.92 18.93 41.55 20.19Q41.18 21.46 41.29 23.62L41.29 23.62L42.66 47.61Q42.76 48.51 42.76 49.35Q42.76 50.20 42.76 50.88L42.76 50.88Q43.71 50.83 44.69 50.80Q45.66 50.78 46.61 50.72L46.61 50.72L46.61 53.04L34.80 53.04L34.80 51.30Q36.43 51.25 37.23 50.51Q38.02 49.77 38.20 48.40Q38.39 47.03 38.28 45.03L38.28 45.03L37.23 27.63Q37.17 26.79 37.12 25.94Q37.07 25.10 37.01 24.25Q36.96 23.41 36.91 22.57L36.91 22.57Q36.75 22.94 36.57 23.36Q36.38 23.78 36.22 24.25L36.22 24.25L24.36 53.57ZM63.48 53.89L63.48 53.89Q59.85 53.89 56.92 52.17Q53.99 50.46 52.31 47.32Q50.62 44.19 50.62 39.91L50.62 39.91Q50.62 36.22 52.28 33.01Q53.94 29.79 56.95 27.81Q59.95 25.84 63.91 25.84L63.91 25.84Q66.12 25.84 68.04 26.55Q69.97 27.26 71.45 28.71Q72.92 30.16 73.77 32.35Q74.61 34.54 74.61 37.49L74.61 37.49L56.05 37.81Q56.05 41.81 56.92 44.84Q57.79 47.88 59.74 49.54Q61.69 51.20 64.75 51.20L64.75 51.20Q66.38 51.20 68.10 50.62Q69.81 50.04 71.29 49.04Q72.76 48.03 73.66 46.82L73.66 46.82L74.93 47.88Q73.50 50.09 71.50 51.41Q69.49 52.73 67.39 53.31Q65.28 53.89 63.48 53.89ZM56.21 35.59L56.21 35.59L69.65 35.59Q69.65 33.69 69.10 31.93Q68.55 30.16 67.28 29.03Q66.01 27.89 63.96 27.89L63.96 27.89Q60.90 27.89 58.87 29.71Q56.84 31.53 56.21 35.59ZM90.06 53.04L79.30 53.04L79.30 51.46Q80.94 51.46 81.57 50.64Q82.20 49.83 82.31 48.38Q82.41 46.93 82.41 45.03L82.41 45.03L82.47 33.01Q82.47 32.16 82.49 31.32Q82.52 30.48 82.68 29.58L82.68 29.58Q81.73 29.63 80.80 29.69Q79.88 29.74 78.93 29.79L78.93 29.79L78.93 27.58Q81.25 27.58 82.44 27.37Q83.63 27.15 84.21 26.84Q84.79 26.52 85.15 26.15L85.15 26.15L86.68 26.15Q86.74 26.52 86.76 27.00Q86.79 27.47 86.84 28.05Q86.89 28.63 86.89 29.37L86.89 29.37Q88.05 28.37 89.45 27.58Q90.85 26.79 92.40 26.31Q93.96 25.84 95.49 25.84L95.49 25.84Q100.08 25.84 102.19 28.71Q104.29 31.58 104.29 37.65L104.29 37.65L104.29 47.45Q104.29 48.51 104.27 49.33Q104.24 50.14 104.08 51.04L104.08 51.04Q104.93 50.99 105.74 50.96Q106.56 50.93 107.41 50.88L107.41 50.88L107.41 53.04L96.65 53.04L96.65 51.46Q98.28 51.46 98.92 50.64Q99.55 49.83 99.65 48.38Q99.76 46.93 99.76 45.03L99.76 45.03L99.76 37.65Q99.71 33.11 98.26 30.79Q96.81 28.47 93.70 28.53L93.70 28.53Q91.80 28.58 89.98 29.53Q88.16 30.48 86.95 31.95L86.95 31.95Q87.00 32.37 87.00 32.90Q87.00 33.43 87.00 34.01L87.00 34.01L86.95 47.45Q86.95 48.51 86.92 49.33Q86.89 50.14 86.74 51.04L86.74 51.04Q87.58 50.99 88.40 50.96Q89.21 50.93 90.06 50.88L90.06 50.88L90.06 53.04ZM121.22 53.89L121.22 53.89Q120.01 53.89 118.74 53.54Q117.48 53.20 116.40 52.20Q115.31 51.20 114.68 49.27Q114.05 47.35 114.05 44.19L114.05 44.19L114.15 28.89L110.09 28.95L110.09 26.68Q111.47 26.63 112.89 25.65Q114.31 24.68 115.45 22.99Q116.58 21.30 117.00 19.30L117.00 19.30L118.79 19.30L118.79 26.68L127.65 26.68L127.65 28.74L118.79 28.84L118.69 43.50Q118.69 45.87 119.08 47.53Q119.48 49.19 120.38 50.04Q121.27 50.88 122.70 50.88L122.70 50.88Q124.17 50.88 125.46 50.04Q126.76 49.19 127.76 47.72L127.76 47.72L129.18 48.88Q128.02 50.62 126.89 51.62Q125.75 52.62 124.70 53.12Q123.65 53.62 122.75 53.76Q121.85 53.89 121.22 53.89ZM144.79 53.89L144.79 53.89Q141.10 53.89 138.09 52.17Q135.09 50.46 133.32 47.43Q131.55 44.40 131.55 40.49L131.55 40.49Q131.55 36.33 133.29 33.01Q135.03 29.69 138.04 27.76Q141.05 25.84 144.79 25.84L144.79 25.84Q148.48 25.84 151.49 27.60Q154.49 29.37 156.28 32.37Q158.08 35.38 158.08 39.23L158.08 39.23Q158.08 43.29 156.31 46.64Q154.54 49.99 151.54 51.94Q148.53 53.89 144.79 53.89ZM145.21 51.78L145.21 51.78Q148.01 51.78 149.64 50.20Q151.27 48.61 151.99 46.08Q152.70 43.55 152.70 40.76L152.70 40.76Q152.70 38.39 152.25 36.09Q151.80 33.80 150.85 31.93Q149.90 30.05 148.40 28.95Q146.90 27.84 144.79 27.84L144.79 27.84Q142.05 27.84 140.31 29.42Q138.57 31.00 137.75 33.53Q136.93 36.07 136.93 38.97L136.93 38.97Q136.93 42.23 137.83 45.16Q138.73 48.09 140.57 49.93Q142.42 51.78 145.21 51.78ZM178.53 53.04L163.14 53.04L163.14 51.30Q165.14 51.25 165.88 50.38Q166.62 49.51 166.70 48.01Q166.78 46.51 166.78 44.55L166.78 44.55L166.78 22.41Q166.78 20.99 166.83 19.96Q166.88 18.93 166.93 18.24L166.93 18.24Q165.99 18.30 165.04 18.35Q164.09 18.40 163.14 18.45L163.14 18.45L163.14 16.13Q166.04 16.08 168.96 16.06Q171.89 16.03 175.05 16.03L175.05 16.03Q181.17 16.03 184.62 18.19Q188.08 20.35 187.97 25.05L187.97 25.05Q187.97 26.73 187.00 28.42Q186.02 30.11 184.10 31.40Q182.17 32.69 179.27 33.22L179.27 33.22L179.27 33.32Q185.07 33.32 188.02 35.99Q190.98 38.65 190.98 42.71L190.98 42.71Q190.98 45.93 189.34 48.25Q187.71 50.57 184.91 51.80Q182.12 53.04 178.53 53.04L178.53 53.04ZM171.21 50.93L171.21 50.93Q172.05 50.99 173.24 51.01Q174.42 51.04 175.45 51.04Q176.48 51.04 176.79 51.04L176.79 51.04Q180.85 51.04 183.36 49.01Q185.86 46.98 185.86 43.03L185.86 43.03Q185.86 39.81 184.60 38.02Q183.33 36.22 181.28 35.49Q179.22 34.75 176.79 34.75L176.79 34.75Q175.21 34.75 173.92 34.77Q172.63 34.80 171.36 34.91L171.36 34.91L171.36 46.82Q171.36 48.25 171.34 49.25Q171.31 50.25 171.21 50.93ZM171.36 23.04L171.36 32.85L175.21 32.74Q178.22 32.69 179.96 31.50Q181.70 30.32 182.46 28.53Q183.23 26.73 183.17 24.78L183.17 24.78Q183.12 21.93 181.88 20.46Q180.64 18.98 178.85 18.45Q177.06 17.93 175.32 17.93L175.32 17.93Q173.58 17.93 172.73 18.40Q171.89 18.88 171.63 19.98Q171.36 21.09 171.36 23.04L171.36 23.04ZM195.35 53.04L195.35 51.46Q196.99 51.46 197.62 50.64Q198.25 49.83 198.36 48.38Q198.46 46.93 198.46 45.03L198.46 45.03L198.46 33.01Q198.46 32.16 198.49 31.32Q198.52 30.48 198.68 29.58L198.68 29.58Q197.73 29.63 196.80 29.66Q195.88 29.69 194.93 29.74L194.93 29.74L194.93 27.58L196.57 27.58Q198.83 27.58 199.70 27.13Q200.57 26.68 201.15 26.15L201.15 26.15L202.68 26.15Q202.79 27.00 202.84 28.24Q202.89 29.47 202.95 31.37L202.95 31.37Q203.74 30.05 205.11 28.79Q206.48 27.52 208.19 26.68Q209.91 25.84 211.80 25.84L211.80 25.84Q213.28 25.84 214.39 26.63Q215.50 27.42 215.50 29.16L215.50 29.16Q215.50 29.58 215.23 30.19Q214.97 30.79 214.39 31.24Q213.81 31.69 212.86 31.69L212.86 31.69Q211.70 31.64 211.01 30.77Q210.33 29.90 210.49 28.74L210.49 28.74Q209.17 28.68 207.77 29.42Q206.37 30.16 205.16 31.45Q203.95 32.74 203.00 34.48L203.00 34.48L203.05 47.45Q203.05 48.51 203.03 49.33Q203.00 50.14 202.84 51.04L202.84 51.04Q203.68 50.99 204.50 50.96Q205.32 50.93 206.16 50.88L206.16 50.88L206.16 53.04L195.35 53.04ZM218.18 53.04L218.18 51.46Q219.82 51.46 220.45 50.64Q221.08 49.83 221.19 48.38Q221.30 46.93 221.30 45.03L221.30 45.03L221.30 33.01Q221.30 32.16 221.35 31.40Q221.40 30.63 221.51 29.58L221.51 29.58Q220.56 29.63 219.63 29.69Q218.71 29.74 217.76 29.79L217.76 29.79L217.76 27.58Q220.08 27.58 221.35 27.37Q222.61 27.15 223.27 26.84Q223.93 26.52 224.30 26.15L224.30 26.15L225.83 26.15L225.83 47.45Q225.83 48.51 225.80 49.33Q225.78 50.14 225.62 51.04L225.62 51.04Q226.46 50.99 227.28 50.96Q228.10 50.93 228.94 50.88L228.94 50.88L228.94 53.04L218.18 53.04ZM223.25 20.93L223.25 20.93Q222.14 20.93 221.30 20.04Q220.45 19.14 220.45 17.82L220.45 17.82Q220.45 16.50 221.32 15.58Q222.19 14.66 223.30 14.66L223.30 14.66Q224.51 14.66 225.33 15.58Q226.15 16.50 226.15 17.82L226.15 17.82Q226.15 19.14 225.28 20.04Q224.41 20.93 223.25 20.93ZM244.28 53.89L244.28 53.89Q241.07 53.89 238.48 52.28Q235.90 50.67 234.40 47.67Q232.90 44.66 232.90 40.60L232.90 40.60Q232.90 36.28 234.64 32.95Q236.38 29.63 239.46 27.73Q242.54 25.84 246.45 25.84L246.45 25.84Q248.19 25.84 249.90 26.28Q251.61 26.73 252.62 27.31L252.62 27.31L252.62 20.09Q252.62 19.25 252.64 18.48Q252.67 17.72 252.77 16.66L252.77 16.66Q251.82 16.71 250.90 16.77Q249.98 16.82 249.03 16.87L249.03 16.87L249.03 14.66Q251.35 14.66 252.62 14.45Q253.88 14.24 254.54 13.92Q255.20 13.60 255.57 13.23L255.57 13.23L257.10 13.23L257.10 47.45Q257.10 48.30 257.04 49.14Q256.99 49.99 256.89 51.04L256.89 51.04Q257.84 50.99 258.76 50.93Q259.68 50.88 260.63 50.83L260.63 50.83L260.63 53.04L253.09 53.04Q252.93 52.25 252.85 51.59Q252.77 50.93 252.72 50.30L252.72 50.30Q251.24 51.94 249.08 52.91Q246.92 53.89 244.28 53.89ZM246.18 51.30L246.18 51.30Q247.92 51.30 249.69 50.30Q251.46 49.30 252.62 47.82L252.62 47.82Q252.56 47.19 252.56 46.48Q252.56 45.77 252.56 44.92L252.56 44.92L252.62 29.74Q251.35 28.79 249.85 28.34Q248.34 27.89 246.76 27.89L246.76 27.89Q244.13 27.89 242.18 29.42Q240.22 30.95 239.22 33.69Q238.22 36.43 238.33 40.13L238.33 40.13Q238.43 43.34 239.35 45.87Q240.28 48.40 241.99 49.85Q243.70 51.30 246.18 51.30ZM277.24 67.33L277.24 67.33Q272.49 67.33 269.59 66.28Q266.69 65.22 265.38 63.59Q264.06 61.95 264.06 60.21L264.06 60.21Q264.06 58.58 264.82 57.34Q265.59 56.10 266.72 55.21Q267.85 54.31 268.91 53.89L268.91 53.89Q267.22 53.31 266.25 52.33Q265.27 51.36 265.27 49.72L265.27 49.72Q265.27 47.88 266.75 46.27Q268.22 44.66 270.54 44.29L270.54 44.29Q268.12 43.13 266.67 41.07Q265.22 39.02 265.22 36.28L265.22 36.28Q265.22 33.11 266.85 30.77Q268.49 28.42 271.04 27.13Q273.60 25.84 276.34 25.84L276.34 25.84Q278.08 25.84 279.82 26.34Q281.56 26.84 283.04 27.79L283.04 27.79Q283.57 26.31 284.54 25.15Q285.52 23.99 286.78 23.33Q288.05 22.67 289.42 22.67L289.42 22.67Q290.79 22.67 291.50 23.38Q292.21 24.10 292.21 25.31L292.21 25.31Q292.21 25.68 292.00 26.21Q291.79 26.73 291.29 27.10Q290.79 27.47 289.95 27.47L289.95 27.47Q289.05 27.47 288.47 26.94Q287.89 26.42 287.73 25.63L287.73 25.63Q286.41 25.84 285.68 26.86Q284.94 27.89 284.67 29.11L284.67 29.11Q285.94 30.27 286.70 31.90Q287.47 33.53 287.47 35.38L287.47 35.38Q287.47 38.33 285.91 40.65Q284.36 42.97 281.83 44.26Q279.30 45.56 276.34 45.56L276.34 45.56Q275.34 45.56 274.60 45.42Q273.86 45.29 272.81 45.29L272.81 45.29Q270.86 45.29 269.65 46.24Q268.43 47.19 268.80 48.51L268.80 48.51Q269.22 49.77 271.39 50.12Q273.55 50.46 277.19 50.62L277.19 50.62Q281.25 50.78 284.15 51.57Q287.05 52.36 288.60 54.02Q290.16 55.68 290.16 58.53L290.16 58.53Q290.16 60.64 289.02 62.30Q287.89 63.96 286.02 65.07Q284.15 66.17 281.85 66.75Q279.56 67.33 277.24 67.33ZM277.19 65.28L277.19 65.28Q281.72 65.28 284.25 63.59Q286.78 61.90 286.78 59.63L286.78 59.63Q286.78 57.68 285.46 56.66Q284.15 55.63 281.88 55.23Q279.61 54.84 276.66 54.78L276.66 54.78Q275.24 54.73 273.86 54.65Q272.49 54.57 271.23 54.36L271.23 54.36Q269.80 55.31 269.01 56.68Q268.22 58.05 268.22 59.58L268.22 59.58Q268.22 62.17 270.67 63.72Q273.13 65.28 277.19 65.28ZM276.50 43.66L276.50 43.66Q278.45 43.66 279.74 42.71Q281.04 41.76 281.69 40.13Q282.35 38.49 282.35 36.43L282.35 36.43Q282.35 34.11 281.67 32.11Q280.98 30.11 279.64 28.89Q278.29 27.68 276.24 27.68L276.24 27.68Q273.39 27.68 271.83 29.82Q270.28 31.95 270.28 35.12L270.28 35.12Q270.28 37.65 271.02 39.57Q271.76 41.50 273.15 42.58Q274.55 43.66 276.50 43.66ZM306.45 53.89L306.45 53.89Q302.81 53.89 299.89 52.17Q296.96 50.46 295.27 47.32Q293.58 44.19 293.58 39.91L293.58 39.91Q293.58 36.22 295.25 33.01Q296.91 29.79 299.91 27.81Q302.92 25.84 306.87 25.84L306.87 25.84Q309.09 25.84 311.01 26.55Q312.94 27.26 314.41 28.71Q315.89 30.16 316.73 32.35Q317.58 34.54 317.58 37.49L317.58 37.49L299.02 37.81Q299.02 41.81 299.89 44.84Q300.76 47.88 302.71 49.54Q304.66 51.20 307.72 51.20L307.72 51.20Q309.35 51.20 311.06 50.62Q312.78 50.04 314.25 49.04Q315.73 48.03 316.63 46.82L316.63 46.82L317.89 47.88Q316.47 50.09 314.46 51.41Q312.46 52.73 310.35 53.31Q308.24 53.89 306.45 53.89ZM299.17 35.59L299.17 35.59L312.62 35.59Q312.62 33.69 312.07 31.93Q311.51 30.16 310.25 29.03Q308.98 27.89 306.92 27.89L306.92 27.89Q303.87 27.89 301.84 29.71Q299.81 31.53 299.17 35.59Z" transform="translate(0, 0)"></path></g></svg></svg>
                </g>
            </svg>
        