<svg width="384" height="63" viewBox="0 0 384 63" fill="none" xmlns="http://www.w3.org/2000/svg">
<path d="M21.0253 7.72572C21.0253 3.52665 24.6586 0.115852 29.1317 0.115852C33.6047 0.115852 37.238 3.52665 37.238 7.72572C37.238 11.9248 33.6047 15.3356 29.1317 15.3356C24.6586 15.3356 21.0253 11.9248 21.0253 7.72572ZM36.6082 24.1582L51.5129 16.2755L48.0572 10.515L33.1525 18.3977C30.6657 19.7166 27.5653 19.7166 25.0785 18.4129L10.0769 10.515L6.63737 16.2906L21.6389 24.1885C23.9481 25.4012 26.5318 26.0076 29.1155 26.0076C31.6992 25.9924 34.2991 25.3861 36.6082 24.1582ZM42.6638 37.6953C40.4838 41.3638 41.8725 45.9873 45.7642 48.0489C49.672 50.0954 54.5972 48.7917 56.7933 45.1384C58.9733 41.4699 57.5846 36.8463 53.6929 34.7847C49.7851 32.7382 44.8599 34.0419 42.6638 37.6953ZM30.7949 39.5144L30.8272 55.5678L37.8678 55.5527L37.8355 39.4992C37.8193 36.816 39.3373 34.2845 41.7756 32.8898L56.4542 24.7949L52.9662 19.1405L38.11 27.2355C35.8493 28.524 34.0245 30.3431 32.765 32.4654C31.4893 34.5876 30.7949 37.0131 30.7949 39.5144ZM4.44123 34.7847C0.533387 36.8312 -0.855348 41.4699 1.34079 45.1384C3.52079 48.8069 8.4621 50.1106 12.3699 48.0489C16.2778 46.0024 17.6665 41.3638 15.4704 37.6953C13.2742 34.0419 8.34906 32.7382 4.44123 34.7847ZM25.3692 32.4654C24.1096 30.3431 22.2849 28.524 20.0241 27.2355L5.36167 19.1405L1.69605 24.7797L16.3585 32.8747C18.7969 34.2693 20.3148 36.816 20.2987 39.484L20.2664 55.5375L27.3069 55.5527L27.3392 39.4992C27.3392 37.0131 26.6449 34.5876 25.3692 32.4654Z" fill="#FFA300"/>
<path d="M89.0042 47.5643H84.2379C83.0772 44.488 81.9261 41.4294 80.7848 38.3883C79.637 35.3472 78.4827 32.3062 77.3219 29.2651C77.0496 28.5612 76.6994 27.5721 76.2714 26.298C75.8499 25.0168 75.4089 23.542 74.9485 21.8737C74.4881 20.2053 74.0698 18.4806 73.6937 16.6996C73.7586 18.7763 73.8072 20.7333 73.8396 22.5706C73.8785 24.4008 73.8785 26.1501 73.8396 27.8185C73.8396 28.6351 73.8396 29.4693 73.8396 30.321C73.8396 31.1728 73.8331 32.0176 73.8202 32.8553C73.8007 33.6859 73.791 34.5201 73.791 35.3578C73.791 36.1885 73.791 37.0297 73.791 37.8815C73.791 38.8881 73.765 39.8525 73.7132 40.7747C73.6613 41.7039 73.6029 42.4078 73.5381 42.8865C74.1152 42.8161 74.8221 42.7704 75.6586 42.7493C76.4951 42.7281 77.0852 42.7176 77.4289 42.7176V47.0046H65.7466V43.33C66.5378 43.2948 67.196 43.1857 67.7212 43.0027C68.253 42.8126 68.6648 42.3867 68.9566 41.725C69.2419 41.0563 69.3846 39.9792 69.3846 38.4939L69.6958 17.2065C69.7283 16.2069 69.7607 15.2425 69.7931 14.3132C69.832 13.384 69.8677 12.6801 69.9001 12.2014C69.3554 12.2366 68.6713 12.2648 67.8477 12.2859C67.0306 12.3 66.434 12.3281 66.0579 12.3704V8.0833H77.3803L85.1134 29.603C85.4182 30.4548 85.7586 31.4474 86.1347 32.5807C86.5108 33.707 86.8707 34.7982 87.2144 35.8541C87.5516 36.91 87.8078 37.7547 87.9829 38.3883H88.0315C88.4725 37.086 88.881 35.8259 89.2571 34.6081C89.6333 33.3832 90.0256 32.1971 90.4341 31.0496C91.77 27.192 93.0929 23.3555 94.4028 19.5401C95.7192 15.7176 97.0421 11.8987 98.3715 8.0833H110.209V11.7579C109.457 11.7931 108.789 11.9022 108.206 12.0853C107.628 12.2753 107.194 12.6942 106.902 13.3418C106.61 13.9894 106.484 15.0735 106.523 16.594L107.291 37.8815C107.356 38.8881 107.356 39.8525 107.291 40.7747C107.22 41.7039 107.152 42.4078 107.087 42.8865C107.664 42.8161 108.371 42.7704 109.208 42.7493C110.044 42.7281 110.634 42.7176 110.978 42.7176V47.0046H96.7373V43.33C97.522 43.2948 98.1964 43.1857 98.7606 43.0027C99.3247 42.8126 99.7527 42.3867 100.045 41.725C100.33 41.0563 100.44 39.9792 100.375 38.4939L99.9667 26.7098C99.9667 26.2663 99.9311 25.499 99.8597 24.4079C99.7949 23.3097 99.7365 22.1024 99.6846 20.7861C99.6328 19.4697 99.5906 18.2378 99.5582 17.0903C99.4544 17.3508 99.3507 17.6007 99.2469 17.84C99.1432 18.0794 99.0589 18.3293 98.994 18.5897L89.0042 47.5643ZM127.368 47.8916C124.871 47.8916 122.667 47.2897 120.754 46.086C118.847 44.8822 117.362 43.1787 116.299 40.9753C115.242 38.7649 114.713 36.1603 114.713 33.1615C114.713 30.5639 115.242 28.1353 116.299 25.8756C117.362 23.6159 118.857 21.7892 120.783 20.3954C122.709 19.0086 124.953 18.3152 127.514 18.3152C128.954 18.3152 130.354 18.5299 131.716 18.9593C133.084 19.3817 134.323 20.1138 135.432 21.1556C136.541 22.1904 137.429 23.5983 138.097 25.3793C138.759 27.1533 139.073 29.3778 139.041 32.0528L122.242 32.3801C122.242 34.3793 122.472 36.1779 122.933 37.7759C123.393 39.3668 124.152 40.6269 125.209 41.5561C126.272 42.4853 127.689 42.9499 129.459 42.9499C130.147 42.9499 130.925 42.8197 131.794 42.5592C132.663 42.2987 133.551 41.8623 134.459 41.2499C135.361 40.6374 136.204 39.8138 136.988 38.779L139.294 41.1126C138.068 42.9992 136.755 44.4352 135.354 45.4207C133.953 46.3992 132.562 47.0574 131.181 47.3953C129.8 47.7262 128.529 47.8916 127.368 47.8916ZM122.553 28.4943H131.969C131.937 26.9315 131.742 25.6961 131.385 24.788C131.029 23.8799 130.542 23.2217 129.926 22.8134C129.31 22.4122 128.594 22.2116 127.777 22.2116C126.272 22.2116 125.092 22.7923 124.236 23.9538C123.386 25.1224 122.826 26.6359 122.553 28.4943ZM156.199 47.0046H142.776V43.3934C143.736 43.3934 144.42 43.1892 144.828 42.7809C145.237 42.3726 145.503 41.7884 145.626 41.0281C145.743 40.2678 145.801 39.4055 145.801 38.4411V29.0962C145.801 28.4345 145.817 27.6848 145.85 26.8471C145.889 26.0164 145.94 25.1928 146.005 24.3762C145.461 24.4114 144.822 24.4396 144.089 24.4607C143.356 24.4748 142.802 24.5029 142.426 24.5451V20.3215C143.995 20.3215 145.324 20.2264 146.414 20.0364C147.51 19.8533 148.372 19.6316 149.001 19.3711C149.637 19.1107 150.071 18.8713 150.305 18.6531H152.814C152.886 19.1318 152.921 19.4838 152.921 19.709C152.921 19.9272 152.931 20.1384 152.95 20.3426C152.963 20.5467 153.022 20.9093 153.126 21.4302C153.806 20.8389 154.591 20.3109 155.48 19.8463C156.368 19.3817 157.256 19.0086 158.145 18.727C159.033 18.4525 159.818 18.3152 160.499 18.3152C163.644 18.3152 165.871 19.2866 167.181 21.2295C168.498 23.1795 169.156 26.305 169.156 30.6061V38.0504C169.156 38.5713 169.14 39.3034 169.107 40.2467C169.075 41.19 169.023 42.0911 168.952 42.9499C169.535 42.8725 170.151 42.8232 170.8 42.8021C171.448 42.788 171.941 42.7809 172.278 42.7809V47.0046H158.865V43.3934C159.818 43.3934 160.508 43.1892 160.936 42.7809C161.364 42.3726 161.637 41.7884 161.754 41.0281C161.877 40.2678 161.938 39.4055 161.938 38.4411L161.88 30.5428C161.88 28.1353 161.565 26.3473 160.936 25.1787C160.307 24.0101 159.241 23.4259 157.736 23.4259C156.88 23.4259 156.034 23.63 155.197 24.0383C154.361 24.4466 153.654 24.9288 153.077 25.4849C153.077 26.0058 153.077 26.5338 153.077 27.0688C153.077 27.6108 153.077 28.1388 153.077 28.6527V38.0504C153.077 38.5713 153.057 39.3034 153.019 40.2467C152.986 41.19 152.938 42.0911 152.873 42.9499C153.417 42.8725 154.024 42.8232 154.692 42.8021C155.353 42.788 155.856 42.7809 156.199 42.7809V47.0046ZM185.595 47.8916C184.57 47.8916 183.581 47.7614 182.628 47.5009C181.668 47.2405 180.816 46.7512 180.07 46.0332C179.318 45.3081 178.718 44.2416 178.27 42.8337C177.829 41.4258 177.609 39.5533 177.609 37.2162L177.706 23.8166H174.224V19.2022C175.287 19.167 176.312 18.7798 177.298 18.0407C178.29 17.2945 179.136 16.3301 179.836 15.1474C180.537 13.9578 181.007 12.7153 181.247 11.42H185.031L184.982 19.2022H191.489V23.4892L184.982 23.6476L184.933 37.3324C184.933 38.1842 185.008 39.0254 185.157 39.856C185.313 40.6937 185.614 41.3801 186.062 41.9151C186.503 42.4501 187.151 42.7176 188.007 42.7176C188.48 42.7176 189.135 42.5346 189.972 42.1685C190.809 41.7954 191.707 40.8697 192.666 39.3914L195.127 41.8834C194.2 43.3687 193.244 44.5197 192.258 45.3363C191.266 46.1529 190.316 46.7442 189.408 47.1102C188.506 47.4833 187.715 47.7086 187.034 47.786C186.347 47.8564 185.867 47.8916 185.595 47.8916ZM209.154 47.8916C206.696 47.8916 204.478 47.3179 202.501 46.1705C200.516 45.023 198.953 43.3828 197.812 41.2499C196.671 39.1169 196.1 36.6038 196.1 33.7106C196.1 30.6343 196.687 27.9382 197.861 25.6222C199.041 23.3062 200.613 21.5111 202.578 20.237C204.537 18.9558 206.677 18.3152 208.998 18.3152C211.462 18.3152 213.667 18.8889 215.613 20.0364C217.558 21.1838 219.095 22.824 220.223 24.957C221.345 27.0899 221.906 29.6382 221.906 32.6018C221.906 35.7133 221.361 38.42 220.272 40.7219C219.176 43.0168 217.672 44.7872 215.759 46.0332C213.852 47.2721 211.651 47.8916 209.154 47.8916ZM209.358 43.9425C210.726 43.9073 211.761 43.3899 212.461 42.3902C213.162 41.3906 213.648 40.1306 213.92 38.61C214.193 37.0895 214.329 35.5514 214.329 33.9957C214.329 32.623 214.235 31.2327 214.047 29.8248C213.859 28.4169 213.56 27.1392 213.152 25.9918C212.743 24.8373 212.189 23.9081 211.488 23.2041C210.788 22.5002 209.926 22.1693 208.901 22.2116C207.572 22.2468 206.521 22.7642 205.749 23.7638C204.984 24.7634 204.439 26.0129 204.115 27.5123C203.791 29.0187 203.629 30.585 203.629 32.2111C203.629 34.1048 203.817 35.9597 204.193 37.7759C204.563 39.5921 205.166 41.0844 206.002 42.253C206.839 43.4215 207.957 43.9847 209.358 43.9425ZM243.471 47.0046H226.06V43.33C226.844 43.2948 227.499 43.1857 228.025 43.0027C228.556 42.8126 228.968 42.3867 229.26 41.725C229.552 41.0563 229.698 39.9792 229.698 38.4939V17.2065C229.698 16.2069 229.724 15.2425 229.775 14.3132C229.821 13.384 229.863 12.6801 229.902 12.2014C229.351 12.2366 228.667 12.2648 227.849 12.2859C227.032 12.3 226.436 12.3281 226.06 12.3704V8.0833C228.414 8.04811 230.777 8.03051 233.151 8.03051C235.524 8.03051 237.888 8.01291 240.242 7.97771C244.34 7.93547 247.592 8.75909 249.998 10.4486C252.404 12.138 253.523 14.6863 253.354 18.0935C253.289 19.1705 252.981 20.2159 252.43 21.2295C251.885 22.2503 251.075 23.1689 249.998 23.9855C248.922 24.8021 247.583 25.4497 245.981 25.9284V25.9918C249.392 26.5831 251.901 27.815 253.51 29.6875C255.111 31.56 255.912 33.6437 255.912 35.9386C255.912 38.3461 255.377 40.377 254.307 42.0312C253.231 43.6785 251.752 44.9174 249.872 45.7481C247.998 46.5858 245.864 47.0046 243.471 47.0046ZM236.915 43.0555C237.531 43.0555 238.112 43.0555 238.656 43.0555C239.201 43.0555 239.749 43.0449 240.3 43.0238C240.845 43.0097 241.373 43.0027 241.886 43.0027C243.967 42.8901 245.485 42.165 246.438 40.8275C247.398 39.497 247.878 37.8111 247.878 35.7696C247.878 34.0661 247.553 32.725 246.905 31.7465C246.256 30.761 245.426 30.0641 244.415 29.6558C243.41 29.2475 242.362 29.0434 241.273 29.0434C240.417 29.0434 239.681 29.0434 239.065 29.0434C238.449 29.0434 237.8 29.061 237.119 29.0962V38.1666C237.119 39.1662 237.103 40.1095 237.071 40.9964C237.038 41.8904 236.987 42.5768 236.915 43.0555ZM237.119 16.5307V25.1576L239.785 25.0942C241.218 25.059 242.353 24.7071 243.189 24.0383C244.026 23.3766 244.622 22.4791 244.979 21.3457C245.342 20.2123 245.524 18.9804 245.524 17.65C245.524 16.1646 245.248 15.0066 244.697 14.176C244.152 13.3383 243.471 12.7364 242.654 12.3704C241.831 11.9973 240.975 11.8283 240.086 11.8635C239.542 11.8635 239.049 11.9585 238.608 12.1486C238.16 12.3316 237.8 12.747 237.528 13.3946C237.256 14.0422 237.119 15.0876 237.119 16.5307ZM259.453 47.0046V43.3934C260.406 43.3934 261.087 43.1892 261.496 42.7809C261.911 42.3726 262.177 41.7884 262.293 41.0281C262.41 40.2678 262.468 39.4055 262.468 38.4411V29.0962C262.468 28.4345 262.488 27.6848 262.527 26.8471C262.559 26.0164 262.608 25.1928 262.673 24.3762C262.128 24.4114 261.489 24.4396 260.756 24.4607C260.024 24.4748 259.469 24.5029 259.093 24.5451V20.3215H261.136C262.472 20.3215 263.694 20.1349 264.803 19.7618C265.912 19.3887 266.638 19.0191 266.982 18.6531H269.491C269.556 19.0191 269.608 19.7125 269.647 20.7333C269.679 21.754 269.696 22.6515 269.696 23.4259C270.616 22.208 271.485 21.226 272.303 20.4798C273.126 19.7407 273.937 19.1951 274.734 18.8432C275.538 18.4912 276.352 18.3152 277.176 18.3152C278.369 18.3152 279.41 18.6777 280.298 19.4028C281.187 20.1208 281.631 21.2964 281.631 22.9296C281.631 23.4857 281.511 24.07 281.271 24.6824C281.031 25.2949 280.655 25.8052 280.143 26.2135C279.63 26.6218 278.93 26.8259 278.042 26.8259C277.361 26.8259 276.66 26.6007 275.94 26.1501C275.227 25.7067 274.819 24.8549 274.715 23.5948C274.027 23.5948 273.343 23.901 272.662 24.5135C271.982 25.1259 271.375 25.8475 270.843 26.6781C270.318 27.5158 269.952 28.2866 269.744 28.9906V38.0504C269.744 38.5713 269.728 39.3034 269.696 40.2467C269.663 41.19 269.611 42.0911 269.54 42.9499C270.085 42.8725 270.691 42.8232 271.359 42.8021C272.027 42.788 272.529 42.7809 272.867 42.7809V47.0046H259.453ZM284.033 47.0046V43.3934C284.987 43.3934 285.671 43.1892 286.086 42.7809C286.494 42.3726 286.757 41.7884 286.874 41.0281C286.997 40.2678 287.059 39.4055 287.059 38.4411V29.2123C287.059 28.5436 287.075 27.7728 287.107 26.8999C287.14 26.034 287.192 25.1928 287.263 24.3762C286.718 24.4114 286.076 24.4396 285.337 24.4607C284.604 24.4748 284.05 24.5029 283.674 24.5451V20.3215C285.243 20.3215 286.575 20.2264 287.671 20.0364C288.761 19.8533 289.623 19.6316 290.259 19.3711C290.888 19.1107 291.322 18.8713 291.562 18.6531H294.325V38.0504C294.325 38.5713 294.309 39.3034 294.276 40.2467C294.244 41.19 294.192 42.0911 294.121 42.9499C294.672 42.8725 295.278 42.8232 295.939 42.8021C296.607 42.788 297.113 42.7809 297.457 42.7809V47.0046H284.033ZM290.434 14.2605C289.273 14.2605 288.317 13.8134 287.564 12.9194C286.819 12.0325 286.446 10.9589 286.446 9.69886C286.446 8.4388 286.838 7.36176 287.623 6.46774C288.407 5.58076 289.328 5.13728 290.385 5.13728C291.475 5.13728 292.389 5.58076 293.128 6.46774C293.861 7.36176 294.228 8.4388 294.228 9.69886C294.228 10.9589 293.887 12.0325 293.206 12.9194C292.519 13.8134 291.595 14.2605 290.434 14.2605ZM310.666 47.8916C308.617 47.8916 306.818 47.3179 305.268 46.1705C303.711 45.023 302.499 43.3934 301.63 41.2815C300.754 39.1626 300.317 36.6777 300.317 33.8267C300.317 30.8279 300.848 28.1599 301.912 25.8228C302.969 23.4857 304.454 21.6519 306.367 20.3215C308.28 18.984 310.498 18.3152 313.02 18.3152C313.941 18.3152 314.771 18.4173 315.51 18.6214C316.243 18.8256 316.934 19.0579 317.582 19.3183V15.6437C317.582 15.1298 317.599 14.3907 317.631 13.4263C317.663 12.4619 317.715 11.5714 317.787 10.7548C317.242 10.79 316.593 10.8252 315.841 10.8604C315.089 10.9026 314.525 10.9237 314.149 10.9237V6.70004C315.757 6.70004 317.096 6.60501 318.166 6.41494C319.242 6.23192 320.098 6.01017 320.734 5.74971C321.363 5.48925 321.797 5.24991 322.037 5.03168H324.8V38.0504C324.8 38.5713 324.784 39.3034 324.751 40.2467C324.719 41.19 324.667 42.0911 324.596 42.9499C325.179 42.8725 325.795 42.8232 326.444 42.8021C327.092 42.788 327.585 42.7809 327.922 42.7809V47.0046H318.195C318.163 46.5963 318.121 46.1705 318.069 45.727C318.017 45.2835 317.955 44.8576 317.884 44.4493C316.762 45.7094 315.601 46.5963 314.402 47.1102C313.208 47.6311 311.963 47.8916 310.666 47.8916ZM313.332 42.8337C314.22 42.8337 315.04 42.5838 315.793 42.084C316.538 41.5842 317.135 40.9436 317.582 40.1623C317.582 39.6061 317.582 39.05 317.582 38.4939C317.582 37.9378 317.582 37.3817 317.582 36.8255V23.4892C317.239 23.1936 316.726 22.9437 316.046 22.7395C315.365 22.5354 314.664 22.4333 313.944 22.4333C312.375 22.4685 311.146 23.0035 310.258 24.0383C309.369 25.0801 308.747 26.3965 308.39 27.9875C308.027 29.5854 307.846 31.2538 307.846 32.9925C307.846 34.5483 308.027 36.0864 308.39 37.6069C308.747 39.1274 309.327 40.377 310.131 41.3554C310.929 42.341 311.996 42.8337 313.332 42.8337ZM342.319 62.0727C339.381 62.0727 337.059 61.7277 335.354 61.0379C333.648 60.355 332.436 59.4575 331.716 58.3452C330.996 57.233 330.636 56.0469 330.636 54.7868C330.636 54.0054 330.792 53.2275 331.103 52.4532C331.408 51.6718 331.91 50.9221 332.611 50.2041C333.311 49.479 334.277 48.8736 335.51 48.3879C334.109 47.9866 333.126 47.332 332.562 46.4239C331.998 45.5158 331.716 44.5408 331.716 43.499C331.716 42.5346 332.076 41.4505 332.796 40.2467C333.509 39.043 334.806 38.1278 336.687 37.5013C335.253 36.8678 334.073 35.8822 333.146 34.5447C332.225 33.2143 331.732 31.6022 331.667 29.7086C331.596 27.4841 332.108 25.5131 333.204 23.7954C334.294 22.0708 335.727 20.7262 337.504 19.7618C339.28 18.7974 341.142 18.3152 343.087 18.3152C343.975 18.3152 345 18.4454 346.161 18.7059C347.322 18.9664 348.327 19.4098 349.176 20.0364C349.552 18.8889 350.042 17.8048 350.645 16.7841C351.242 15.7634 351.965 14.9292 352.814 14.2816C353.67 13.6339 354.627 13.3101 355.684 13.3101C356.844 13.3101 357.723 13.6339 358.32 14.2816C358.916 14.9292 359.215 15.7915 359.215 16.8686C359.215 17.3121 359.124 17.8048 358.942 18.3469C358.754 18.8819 358.427 19.3359 357.96 19.709C357.499 20.0751 356.861 20.2581 356.044 20.2581C355.531 20.2581 355.019 20.0469 354.507 19.6245C353.994 19.1951 353.686 18.6848 353.583 18.0935C353.142 18.2413 352.697 18.7235 352.25 19.5401C351.809 20.3566 351.553 21.0782 351.481 21.7047C352.474 22.6339 353.226 23.711 353.738 24.9358C354.25 26.1537 354.507 27.4665 354.507 28.8744C354.507 31.0285 353.952 32.9292 352.843 34.5764C351.734 36.2237 350.301 37.5224 348.544 38.4728C346.787 39.4161 344.899 39.8877 342.883 39.8877C342.435 39.8877 341.939 39.8596 341.394 39.8032C340.85 39.7469 340.321 39.7188 339.809 39.7188C339.057 39.7188 338.424 39.8666 337.912 40.1623C337.4 40.4579 337.144 40.8662 337.144 41.3871C337.144 42.0911 337.64 42.5733 338.632 42.8337C339.624 43.0942 341.313 43.2983 343.7 43.4462C346.333 43.594 348.628 43.9565 350.587 44.5338C352.551 45.104 354.082 46.0015 355.178 47.2264C356.267 48.4512 356.812 50.1372 356.812 52.2842C356.812 53.8752 356.384 55.276 355.528 56.4868C354.678 57.6906 353.544 58.7078 352.123 59.5384C350.71 60.3761 349.147 61.0062 347.435 61.4285C345.73 61.8579 344.024 62.0727 342.319 62.0727ZM343.807 58.2291C346.226 58.2291 348.061 57.7504 349.312 56.793C350.557 55.8286 351.18 54.8255 351.18 53.7837C351.18 53.0093 350.908 52.3722 350.363 51.8724C349.812 51.3656 348.998 50.9643 347.921 50.6687C346.851 50.373 345.48 50.19 343.807 50.1196C343.055 50.0422 342.182 49.9859 341.19 49.9507C340.198 49.9155 339.329 49.8239 338.583 49.6761C338.071 50.1196 337.675 50.6757 337.397 51.3445C337.124 52.0062 336.972 52.6538 336.939 53.2874C336.875 54.7657 337.465 55.9589 338.71 56.867C339.955 57.7751 341.654 58.2291 343.807 58.2291ZM343.087 36.1603C344.008 36.1603 344.783 35.847 345.412 35.2205C346.047 34.587 346.527 33.788 346.851 32.8236C347.176 31.8592 347.338 30.8772 347.338 29.8776C347.338 28.5823 347.185 27.3328 346.881 26.129C346.569 24.9253 346.099 23.9433 345.47 23.183C344.835 22.4227 344.024 22.0426 343.038 22.0426C341.67 22.0426 340.61 22.7078 339.858 24.0383C339.105 25.3758 338.729 26.8963 338.729 28.5999C338.729 29.8952 338.901 31.1271 339.245 32.2956C339.588 33.4642 340.085 34.4004 340.733 35.1044C341.381 35.8083 342.166 36.1603 343.087 36.1603ZM371.977 47.8916C369.48 47.8916 367.275 47.2897 365.362 46.086C363.449 44.8822 361.964 43.1787 360.907 40.9753C359.85 38.7649 359.322 36.1603 359.322 33.1615C359.322 30.5639 359.85 28.1353 360.907 25.8756C361.964 23.6159 363.459 21.7892 365.391 20.3954C367.317 19.0086 369.561 18.3152 372.122 18.3152C373.556 18.3152 374.956 18.5299 376.325 18.9593C377.693 19.3817 378.931 20.1138 380.04 21.1556C381.149 22.1904 382.038 23.5983 382.706 25.3793C383.367 27.1533 383.682 29.3778 383.649 32.0528L366.85 32.3801C366.85 34.3793 367.081 36.1779 367.541 37.7759C368.001 39.3668 368.76 40.6269 369.817 41.5561C370.881 42.4853 372.298 42.9499 374.068 42.9499C374.755 42.9499 375.533 42.8197 376.402 42.5592C377.271 42.2987 378.16 41.8623 379.068 41.2499C379.969 40.6374 380.812 39.8138 381.597 38.779L383.902 41.1126C382.676 42.9992 381.363 44.4352 379.963 45.4207C378.562 46.3992 377.171 47.0574 375.79 47.3953C374.408 47.7262 373.137 47.8916 371.977 47.8916ZM367.162 28.4943H376.578C376.545 26.9315 376.351 25.6961 375.994 24.788C375.637 23.8799 375.151 23.2217 374.535 22.8134C373.919 22.4122 373.202 22.2116 372.385 22.2116C370.881 22.2116 369.7 22.7923 368.844 23.9538C367.995 25.1224 367.434 26.6359 367.162 28.4943Z" fill="#00529B"/>
</svg>
