
            <svg xmlns="http://www.w3.org/2000/svg">
                <filter id="grayscale">
                    <feColorMatrix type="saturate" values="0"/>
                </filter>
                <g filter="url(#grayscale)">
                    <svg xmlns="http://www.w3.org/2000/svg" viewBox="20 184.32633676364577 535.0018827436793 206.34523290228265"> <svg xmlns="http://www.w3.org/2000/svg" xmlns:xlink="http://www.w3.org/1999/xlink" version="1.1" id="Layer_1" x="90" y="254.32633676364577" viewBox="71.84739685058594 67.10000610351562 356.23980712890625 365.79998779296875" xml:space="preserve" height="60.54101975917743" width="58.95879288847558" preserveAspectRatio="xMinYMin" enable-background="new 0 0 500 500" style="overflow: visible;"><path class="st0" d="M200.2,117.3c0-27.7,22.5-50.2,50.2-50.2s50.2,22.5,50.2,50.2s-22.5,50.2-50.2,50.2S200.2,145,200.2,117.3z   M296.7,225.7l92.3-52l-21.4-38l-92.3,52c-15.4,8.7-34.6,8.7-50,0.1l-92.9-52.1l-21.3,38.1l92.9,52.1c14.3,8,30.3,12,46.3,12  C266.3,237.8,282.4,233.8,296.7,225.7z M334.2,315c-13.5,24.2-4.9,54.7,19.2,68.3c24.2,13.5,54.7,4.9,68.3-19.2  c13.5-24.2,4.9-54.7-19.2-68.3C378.3,282.3,347.8,290.9,334.2,315z M260.7,327l0.2,105.9l43.6-0.1l-0.2-105.9  c-0.1-17.7,9.3-34.4,24.4-43.6l90.9-53.4L398,192.6L306,246c-14,8.5-25.3,20.5-33.1,34.5C265,294.5,260.7,310.5,260.7,327z   M97.5,295.8c-24.2,13.5-32.8,44.1-19.2,68.3c13.5,24.2,44.1,32.8,68.3,19.2c24.2-13.5,32.8-44.1,19.2-68.3  C152.2,290.9,121.7,282.3,97.5,295.8z M227.1,280.5c-7.8-14-19.1-26-33.1-34.5l-90.8-53.4l-22.7,37.2l90.8,53.4  c15.1,9.2,24.5,26,24.4,43.6l-0.2,105.9l43.6,0.1l0.2-105.9C239.3,310.5,235,294.5,227.1,280.5z" style="fill: #FFA300; fill-opacity: 1;"></path></svg> <svg xmlns="http://www.w3.org/2000/svg" x="157.9218961714136" y="266.651573022862" viewBox="2.4700000286102295 13.220000267028809 327.0799865722656 54.019996643066406" height="54.019996643066406" width="327.0799865722656" style="overflow: visible;"><g fill="#00529B" fill-opacity="1" style=""><path d="M26.38 53.50L21.48 53.50Q19.69 49.13 17.93 44.81Q16.16 40.49 14.37 36.17L14.37 36.17Q13.95 35.17 13.29 33.36Q12.64 31.54 11.93 29.17Q11.22 26.80 10.64 24.27L10.64 24.27Q10.74 27.22 10.79 29.83Q10.85 32.43 10.79 34.80L10.79 34.80Q10.79 35.96 10.79 37.17Q10.79 38.38 10.77 39.57Q10.74 40.75 10.74 41.94Q10.74 43.12 10.74 44.33L10.74 44.33Q10.74 45.76 10.66 47.07Q10.58 48.39 10.48 49.07L10.48 49.07Q11.37 48.97 12.66 48.94Q13.95 48.91 14.48 48.91L14.48 48.91L14.48 52.97L2.47 52.97L2.47 49.49Q3.69 49.44 4.50 49.18Q5.32 48.91 5.77 47.97Q6.21 47.02 6.21 44.91L6.21 44.91L6.53 24.75Q6.58 23.33 6.63 22.01Q6.69 20.69 6.74 20.01L6.74 20.01Q5.90 20.06 4.63 20.09Q3.37 20.11 2.79 20.17L2.79 20.17L2.79 16.11L14.43 16.11L22.38 36.49Q22.85 37.70 23.43 39.31Q24.01 40.91 24.54 42.41Q25.06 43.91 25.33 44.81L25.33 44.81L25.38 44.81Q26.06 42.96 26.64 41.23Q27.22 39.49 27.85 37.86L27.85 37.86Q29.91 32.38 31.93 26.96Q33.96 21.53 36.01 16.11L36.01 16.11L48.18 16.11L48.18 19.59Q47.02 19.64 46.12 19.90Q45.23 20.17 44.78 21.09Q44.33 22.01 44.39 24.17L44.39 24.17L45.18 44.33Q45.28 45.76 45.18 47.07Q45.07 48.39 44.97 49.07L44.97 49.07Q45.86 48.97 47.15 48.94Q48.44 48.91 48.97 48.91L48.97 48.91L48.97 52.97L34.33 52.97L34.33 49.49Q35.54 49.44 36.41 49.18Q37.28 48.91 37.73 47.97Q38.17 47.02 38.07 44.91L38.07 44.91L37.65 33.75Q37.65 33.12 37.54 31.57Q37.44 30.01 37.36 28.14Q37.28 26.27 37.23 24.64L37.23 24.64Q37.07 25.01 36.91 25.35Q36.75 25.69 36.65 26.06L36.65 26.06L26.38 53.50ZM65.82 53.81L65.82 53.81Q61.97 53.81 59.02 52.10Q56.08 50.39 54.44 47.26Q52.81 44.12 52.81 39.86L52.81 39.86Q52.81 36.17 54.44 32.96Q56.08 29.75 59.05 27.77Q62.02 25.80 65.97 25.80L65.97 25.80Q68.19 25.80 70.29 26.41Q72.40 27.01 74.11 28.49Q75.82 29.96 76.85 32.49Q77.87 35.01 77.82 38.81L77.82 38.81L60.55 39.12Q60.55 41.96 61.26 44.23Q61.97 46.49 63.60 47.81Q65.24 49.13 67.97 49.13L67.97 49.13Q69.03 49.13 70.37 48.76Q71.71 48.39 73.11 47.52Q74.50 46.65 75.71 45.18L75.71 45.18L78.08 47.39Q76.19 50.07 74.03 51.47Q71.87 52.86 69.74 53.34Q67.61 53.81 65.82 53.81ZM60.87 35.44L60.87 35.44L70.55 35.44Q70.50 33.22 69.95 31.93Q69.40 30.64 68.45 30.06Q67.50 29.49 66.24 29.49L66.24 29.49Q63.92 29.49 62.60 31.14Q61.29 32.80 60.87 35.44ZM95.46 52.97L81.66 52.97L81.66 49.55Q83.14 49.55 83.77 48.97Q84.40 48.39 84.59 47.31Q84.77 46.23 84.77 44.86L84.77 44.86L84.77 36.01Q84.77 35.07 84.82 33.88Q84.88 32.70 84.98 31.54L84.98 31.54Q84.14 31.59 83.01 31.62Q81.88 31.64 81.30 31.70L81.30 31.70L81.30 27.70Q83.72 27.70 85.40 27.43Q87.09 27.17 88.06 26.80Q89.04 26.43 89.40 26.12L89.40 26.12L91.98 26.12Q92.09 26.80 92.09 27.12Q92.09 27.43 92.12 27.72Q92.14 28.01 92.30 28.75L92.30 28.75Q93.35 27.91 94.72 27.25Q96.09 26.59 97.46 26.19Q98.83 25.80 99.88 25.80L99.88 25.80Q104.73 25.80 106.75 28.56Q108.78 31.33 108.78 37.44L108.78 37.44L108.78 44.49Q108.78 45.23 108.73 46.57Q108.68 47.91 108.57 49.13L108.57 49.13Q109.47 49.02 110.47 48.99Q111.47 48.97 111.99 48.97L111.99 48.97L111.99 52.97L98.20 52.97L98.20 49.55Q99.67 49.55 100.33 48.97Q100.99 48.39 101.17 47.31Q101.36 46.23 101.36 44.86L101.36 44.86L101.30 37.38Q101.30 33.96 100.33 32.30Q99.36 30.64 97.04 30.64L97.04 30.64Q95.72 30.64 94.43 31.22Q93.14 31.80 92.25 32.59L92.25 32.59Q92.25 33.33 92.25 34.09Q92.25 34.86 92.25 35.59L92.25 35.59L92.25 44.49Q92.25 45.23 92.19 46.57Q92.14 47.91 92.04 49.13L92.04 49.13Q92.88 49.02 93.91 48.99Q94.93 48.97 95.46 48.97L95.46 48.97L95.46 52.97ZM125.68 53.81L125.68 53.81Q124.10 53.81 122.63 53.44Q121.15 53.07 120.00 52.05Q118.84 51.02 118.15 49.02Q117.47 47.02 117.47 43.70L117.47 43.70L117.57 31.01L113.99 31.01L113.99 26.64Q115.63 26.59 117.15 25.54Q118.68 24.48 119.76 22.80Q120.84 21.11 121.21 19.27L121.21 19.27L125.10 19.27L125.05 26.64L131.74 26.64L131.74 30.70L125.05 30.85L125.00 43.81Q125.00 45.02 125.23 46.20Q125.47 47.39 126.16 48.15Q126.84 48.91 128.16 48.91L128.16 48.91Q128.89 48.91 130.18 48.39Q131.47 47.86 132.95 45.76L132.95 45.76L135.48 48.12Q134.05 50.23 132.53 51.39Q131.00 52.55 129.60 53.07Q128.21 53.60 127.16 53.71Q126.10 53.81 125.68 53.81ZM149.90 53.81L149.90 53.81Q146.11 53.81 143.06 52.18Q140.00 50.55 138.24 47.52Q136.48 44.49 136.48 40.38L136.48 40.38Q136.48 36.01 138.29 32.72Q140.11 29.43 143.14 27.62Q146.16 25.80 149.74 25.80L149.74 25.80Q153.54 25.80 156.54 27.43Q159.54 29.06 161.28 32.09Q163.01 35.12 163.01 39.33L163.01 39.33Q163.01 43.75 161.33 47.02Q159.64 50.28 156.69 52.05Q153.75 53.81 149.90 53.81ZM150.11 50.07L150.11 50.07Q152.22 50.02 153.30 48.60Q154.38 47.18 154.80 45.02Q155.22 42.86 155.22 40.65L155.22 40.65Q155.22 38.70 154.93 36.70Q154.64 34.70 154.01 33.07Q153.38 31.43 152.30 30.43Q151.22 29.43 149.64 29.49L149.64 29.49Q147.59 29.54 146.40 30.96Q145.22 32.38 144.72 34.51Q144.22 36.65 144.22 38.96L144.22 38.96Q144.22 41.65 144.80 44.23Q145.37 46.81 146.66 48.47Q147.95 50.13 150.11 50.07ZM185.18 52.97L167.28 52.97L167.28 49.49Q168.49 49.44 169.30 49.18Q170.12 48.91 170.57 47.97Q171.02 47.02 171.02 44.91L171.02 44.91L171.02 24.75Q171.02 23.33 171.10 22.01Q171.17 20.69 171.23 20.01L171.23 20.01Q170.38 20.06 169.12 20.09Q167.86 20.11 167.28 20.17L167.28 20.17L167.28 16.11Q170.91 16.06 174.57 16.06Q178.23 16.06 181.86 16.01L181.86 16.01Q188.18 15.95 191.89 18.35Q195.60 20.75 195.34 25.59L195.34 25.59Q195.24 27.12 194.39 28.56Q193.55 30.01 191.89 31.17Q190.23 32.33 187.76 33.01L187.76 33.01L187.76 33.07Q193.02 33.91 195.50 36.57Q197.97 39.23 197.97 42.49L197.97 42.49Q197.97 45.91 196.32 48.26Q194.66 50.60 191.76 51.78Q188.87 52.97 185.18 52.97L185.18 52.97ZM178.44 49.23L178.44 49.23Q179.39 49.23 180.23 49.23Q181.07 49.23 181.92 49.20Q182.76 49.18 183.55 49.18L183.55 49.18Q186.76 49.02 188.23 47.12Q189.71 45.23 189.71 42.33L189.71 42.33Q189.71 39.91 188.71 38.52Q187.71 37.12 186.15 36.54Q184.60 35.96 182.92 35.96L182.92 35.96Q181.60 35.96 180.65 35.96Q179.70 35.96 178.65 36.01L178.65 36.01L178.65 44.60Q178.65 46.02 178.60 47.28Q178.55 48.55 178.44 49.23ZM178.65 24.11L178.65 32.28L181.39 32.22Q183.60 32.17 184.89 31.22Q186.18 30.28 186.73 28.67Q187.29 27.06 187.29 25.17L187.29 25.17Q187.29 23.06 186.44 21.88Q185.60 20.69 184.34 20.17Q183.07 19.64 181.70 19.69L181.70 19.69Q180.86 19.69 180.18 19.96Q179.49 20.22 179.07 21.14Q178.65 22.06 178.65 24.11L178.65 24.11ZM201.61 52.97L201.61 49.55Q203.08 49.55 203.71 48.97Q204.35 48.39 204.53 47.31Q204.71 46.23 204.71 44.86L204.71 44.86L204.71 36.01Q204.71 35.07 204.77 33.88Q204.82 32.70 204.92 31.54L204.92 31.54Q204.08 31.59 202.95 31.62Q201.82 31.64 201.24 31.70L201.24 31.70L201.24 27.70L203.34 27.70Q205.40 27.70 207.11 27.17Q208.82 26.64 209.35 26.12L209.35 26.12L211.93 26.12Q212.03 26.64 212.09 28.09Q212.14 29.54 212.14 30.64L212.14 30.64Q213.56 28.91 214.82 27.85Q216.09 26.80 217.32 26.30Q218.56 25.80 219.83 25.80L219.83 25.80Q221.67 25.80 223.04 26.83Q224.41 27.85 224.41 30.17L224.41 30.17Q224.41 30.96 224.04 31.83Q223.67 32.70 222.88 33.28Q222.09 33.86 220.72 33.86L220.72 33.86Q219.67 33.86 218.56 33.22Q217.46 32.59 217.30 30.80L217.30 30.80Q216.24 30.80 215.19 31.67Q214.14 32.54 213.32 33.72Q212.51 34.91 212.19 35.91L212.19 35.91L212.19 44.49Q212.19 45.23 212.14 46.57Q212.09 47.91 211.98 49.13L211.98 49.13Q212.82 49.02 213.85 48.99Q214.88 48.97 215.40 48.97L215.40 48.97L215.40 52.97L201.61 52.97ZM226.88 52.97L226.88 49.55Q228.35 49.55 228.99 48.97Q229.62 48.39 229.80 47.31Q229.99 46.23 229.99 44.86L229.99 44.86L229.99 36.12Q229.99 35.17 230.04 33.93Q230.09 32.70 230.20 31.54L230.20 31.54Q229.36 31.59 228.22 31.62Q227.09 31.64 226.51 31.70L226.51 31.70L226.51 27.70Q228.93 27.70 230.62 27.43Q232.30 27.17 233.28 26.80Q234.25 26.43 234.62 26.12L234.62 26.12L237.46 26.12L237.46 44.49Q237.46 45.23 237.41 46.57Q237.36 47.91 237.25 49.13L237.25 49.13Q238.10 49.02 239.12 48.99Q240.15 48.97 240.68 48.97L240.68 48.97L240.68 52.97L226.88 52.97ZM233.46 21.96L233.46 21.96Q231.67 21.96 230.51 20.69Q229.36 19.43 229.36 17.64L229.36 17.64Q229.36 15.85 230.57 14.58Q231.78 13.32 233.41 13.32L233.41 13.32Q235.09 13.32 236.23 14.58Q237.36 15.85 237.36 17.64L237.36 17.64Q237.36 19.43 236.31 20.69Q235.25 21.96 233.46 21.96ZM254.26 53.81L254.26 53.81Q251.10 53.81 248.71 52.18Q246.31 50.55 244.97 47.55Q243.62 44.54 243.62 40.49L243.62 40.49Q243.62 36.23 245.26 32.91Q246.89 29.59 249.84 27.70Q252.79 25.80 256.68 25.80L256.68 25.80Q258.10 25.80 259.24 26.09Q260.37 26.38 261.37 26.75L261.37 26.75L261.37 23.27Q261.37 22.54 261.42 21.17Q261.47 19.80 261.58 18.64L261.58 18.64Q260.74 18.69 259.58 18.74Q258.42 18.80 257.84 18.80L257.84 18.80L257.84 14.80Q260.32 14.80 261.97 14.53Q263.63 14.27 264.61 13.90Q265.58 13.53 265.95 13.22L265.95 13.22L268.79 13.22L268.79 44.49Q268.79 45.23 268.74 46.57Q268.69 47.91 268.58 49.13L268.58 49.13Q269.48 49.02 270.48 48.99Q271.48 48.97 272.00 48.97L272.00 48.97L272.00 52.97L262.00 52.97Q261.95 52.39 261.87 51.76Q261.79 51.13 261.68 50.55L261.68 50.55Q259.95 52.34 258.10 53.07Q256.26 53.81 254.26 53.81ZM257.00 49.02L257.00 49.02Q258.37 49.02 259.53 48.31Q260.68 47.60 261.37 46.49L261.37 46.49Q261.37 45.70 261.37 44.91Q261.37 44.12 261.37 43.33L261.37 43.33L261.37 30.70Q260.84 30.28 259.79 29.99Q258.74 29.70 257.63 29.70L257.63 29.70Q255.21 29.75 253.84 31.22Q252.47 32.70 251.92 34.96Q251.36 37.23 251.36 39.70L251.36 39.70Q251.36 41.91 251.92 44.07Q252.47 46.23 253.71 47.62Q254.94 49.02 257.00 49.02ZM286.80 67.24L286.80 67.24Q282.27 67.24 279.64 66.26Q277.01 65.29 275.90 63.71Q274.79 62.13 274.79 60.34L274.79 60.34Q274.79 59.23 275.27 58.13Q275.74 57.02 276.82 56.00Q277.90 54.97 279.80 54.28L279.80 54.28Q277.64 53.71 276.77 52.42Q275.90 51.13 275.90 49.65L275.90 49.65Q275.90 48.28 277.01 46.57Q278.11 44.86 281.01 43.97L281.01 43.97Q278.80 43.07 277.37 41.17Q275.95 39.28 275.85 36.59L275.85 36.59Q275.74 33.43 277.43 30.99Q279.11 28.54 281.85 27.17Q284.59 25.80 287.59 25.80L287.59 25.80Q288.96 25.80 290.75 26.17Q292.54 26.54 293.85 27.43L293.85 27.43Q294.43 25.80 295.36 24.35Q296.28 22.90 297.59 21.98Q298.91 21.06 300.54 21.06L300.54 21.06Q302.33 21.06 303.25 21.98Q304.17 22.90 304.17 24.43L304.17 24.43Q304.17 25.06 303.89 25.83Q303.60 26.59 302.88 27.12Q302.17 27.64 300.91 27.64L300.91 27.64Q300.12 27.64 299.33 27.04Q298.54 26.43 298.38 25.59L298.38 25.59Q297.70 25.80 297.01 26.96Q296.33 28.12 296.22 29.01L296.22 29.01Q297.75 30.33 298.54 32.07Q299.33 33.80 299.33 35.80L299.33 35.80Q299.33 38.86 297.62 41.20Q295.91 43.54 293.20 44.89Q290.49 46.23 287.38 46.23L287.38 46.23Q286.69 46.23 285.85 46.15Q285.01 46.07 284.22 46.07L284.22 46.07Q283.06 46.07 282.27 46.49Q281.48 46.91 281.48 47.65L281.48 47.65Q281.48 48.65 283.01 49.02Q284.54 49.39 288.22 49.60L288.22 49.60Q292.28 49.81 295.30 50.63Q298.33 51.44 300.02 53.18Q301.70 54.92 301.70 57.97L301.70 57.97Q301.70 60.23 300.38 61.95Q299.07 63.66 296.88 64.84Q294.70 66.03 292.06 66.63Q289.43 67.24 286.80 67.24ZM288.33 63.60L288.33 63.60Q292.06 63.60 293.99 62.24Q295.91 60.87 295.91 59.39L295.91 59.39Q295.91 58.29 295.07 57.58Q294.22 56.86 292.56 56.44Q290.91 56.02 288.33 55.92L288.33 55.92Q287.17 55.81 285.64 55.76Q284.11 55.71 282.96 55.50L282.96 55.50Q282.17 56.13 281.74 57.08Q281.32 58.02 281.27 58.92L281.27 58.92Q281.17 61.02 283.09 62.31Q285.01 63.60 288.33 63.60ZM287.59 42.70L287.59 42.70Q289.01 42.70 289.98 41.81Q290.96 40.91 291.46 39.54Q291.96 38.17 291.96 36.75L291.96 36.75Q291.96 34.91 291.49 33.20Q291.01 31.49 290.04 30.41Q289.06 29.33 287.54 29.33L287.54 29.33Q285.43 29.33 284.27 31.22Q283.11 33.12 283.11 35.54L283.11 35.54Q283.11 37.38 283.64 39.04Q284.17 40.70 285.17 41.70Q286.17 42.70 287.59 42.70ZM317.29 53.81L317.29 53.81Q313.44 53.81 310.49 52.10Q307.54 50.39 305.91 47.26Q304.28 44.12 304.28 39.86L304.28 39.86Q304.28 36.17 305.91 32.96Q307.54 29.75 310.52 27.77Q313.49 25.80 317.44 25.80L317.44 25.80Q319.65 25.80 321.76 26.41Q323.87 27.01 325.58 28.49Q327.29 29.96 328.32 32.49Q329.34 35.01 329.29 38.81L329.29 38.81L312.02 39.12Q312.02 41.96 312.73 44.23Q313.44 46.49 315.07 47.81Q316.71 49.13 319.44 49.13L319.44 49.13Q320.50 49.13 321.84 48.76Q323.18 48.39 324.58 47.52Q325.97 46.65 327.18 45.18L327.18 45.18L329.55 47.39Q327.66 50.07 325.50 51.47Q323.34 52.86 321.21 53.34Q319.08 53.81 317.29 53.81ZM312.34 35.44L312.34 35.44L322.02 35.44Q321.97 33.22 321.42 31.93Q320.87 30.64 319.92 30.06Q318.97 29.49 317.71 29.49L317.71 29.49Q315.39 29.49 314.07 31.14Q312.76 32.80 312.34 35.44Z" transform="translate(0, 0)"></path></g></svg></svg>
                </g>
            </svg>
        