<svg width="395" height="67" viewBox="0 0 395 67" fill="none" xmlns="http://www.w3.org/2000/svg">
<g clip-path="url(#clip0_1_20)">
<path d="M21.2427 8.30825C21.2427 3.72382 24.9666 0 29.551 0C34.1354 0 37.8593 3.72382 37.8593 8.30825C37.8593 12.8927 34.1354 16.6165 29.551 16.6165C24.9666 16.6165 21.2427 12.8927 21.2427 8.30825ZM37.2138 26.2488L52.4897 17.6426L48.948 11.3535L33.672 19.9597C31.1233 21.3995 27.9456 21.3995 25.3969 19.9762L10.0216 11.3535L6.49643 17.6592L21.8717 26.2819C24.2384 27.6059 26.8864 28.2679 29.5345 28.2679C32.1825 28.2514 34.8471 27.5894 37.2138 26.2488ZM43.4202 41.0282C41.1859 45.0334 42.6092 50.0812 46.5978 52.3321C50.603 54.5664 55.6508 53.143 57.9017 49.1544C60.136 45.1492 58.7126 40.1014 54.724 37.8505C50.7188 35.6163 45.671 37.0396 43.4202 41.0282ZM31.2557 43.0142L31.2888 60.541L38.5047 60.5245L38.4716 42.9977C38.4551 40.0683 40.0108 37.3044 42.5099 35.7818L57.5541 26.9439L53.9793 20.7706L38.753 29.6085C36.4359 31.0153 34.5657 33.0013 33.2748 35.3184C31.9673 37.6354 31.2557 40.2834 31.2557 43.0142ZM4.24558 37.8505C0.24041 40.0848 -1.18292 45.1492 1.06793 49.1544C3.30222 53.1596 8.36661 54.5829 12.3718 52.3321C16.377 50.0978 17.8003 45.0334 15.5494 41.0282C13.2986 37.0396 8.25076 35.6163 4.24558 37.8505ZM25.6948 35.3184C24.4039 33.0013 22.5337 31.0153 20.2166 29.6085L5.18895 20.7706L1.43203 26.9274L16.4597 35.7652C18.9588 37.2878 20.5145 40.0683 20.498 42.9811L20.4649 60.5079L27.6808 60.5245L27.7139 42.9977C27.7139 40.2834 27.0023 37.6354 25.6948 35.3184Z" fill="#FFA300"/>
</g>
<g clip-path="url(#clip1_1_20)">
<path d="M91.8319 52.6052H86.9319C85.7385 49.6919 84.5552 46.7952 83.3819 43.9152C82.2019 41.0352 81.0152 38.1552 79.8219 35.2752C79.5419 34.6086 79.1819 33.6719 78.7419 32.4652C78.3085 31.2519 77.8552 29.8552 77.3819 28.2752C76.9085 26.6952 76.4785 25.0619 76.0919 23.3752C76.1585 25.3419 76.2085 27.1952 76.2419 28.9352C76.2819 30.6686 76.2819 32.3252 76.2419 33.9052C76.2419 34.6786 76.2419 35.4686 76.2419 36.2752C76.2419 37.0819 76.2352 37.8819 76.2219 38.6752C76.2019 39.4619 76.1919 40.2519 76.1919 41.0452C76.1919 41.8319 76.1919 42.6286 76.1919 43.4352C76.1919 44.3886 76.1652 45.3019 76.1119 46.1752C76.0585 47.0552 75.9985 47.7219 75.9319 48.1752C76.5252 48.1086 77.2519 48.0652 78.1119 48.0452C78.9719 48.0252 79.5785 48.0152 79.9319 48.0152V52.0752H67.9219V48.5952C68.7352 48.5619 69.4119 48.4586 69.9519 48.2852C70.4985 48.1052 70.9219 47.7019 71.2219 47.0752C71.5152 46.4419 71.6619 45.4219 71.6619 44.0152L71.9819 23.8552C72.0152 22.9086 72.0485 21.9952 72.0819 21.1152C72.1219 20.2352 72.1585 19.5686 72.1919 19.1152C71.6319 19.1486 70.9285 19.1752 70.0819 19.1952C69.2419 19.2086 68.6285 19.2352 68.2419 19.2752V15.2152H79.8819L87.8319 35.5952C88.1452 36.4019 88.4952 37.3419 88.8819 38.4152C89.2685 39.4819 89.6385 40.5152 89.9919 41.5152C90.3385 42.5152 90.6019 43.3152 90.7819 43.9152H90.8319C91.2852 42.6819 91.7052 41.4886 92.0919 40.3352C92.4785 39.1752 92.8819 38.0519 93.3019 36.9652C94.6752 33.3119 96.0352 29.6786 97.3819 26.0652C98.7352 22.4452 100.095 18.8286 101.462 15.2152H113.632V18.6952C112.859 18.7286 112.172 18.8319 111.572 19.0052C110.979 19.1852 110.532 19.5819 110.232 20.1952C109.932 20.8086 109.802 21.8352 109.842 23.2752L110.632 43.4352C110.699 44.3886 110.699 45.3019 110.632 46.1752C110.559 47.0552 110.489 47.7219 110.422 48.1752C111.015 48.1086 111.742 48.0652 112.602 48.0452C113.462 48.0252 114.069 48.0152 114.422 48.0152V52.0752H99.7819V48.5952C100.589 48.5619 101.282 48.4586 101.862 48.2852C102.442 48.1052 102.882 47.7019 103.182 47.0752C103.475 46.4419 103.589 45.4219 103.522 44.0152L103.102 32.8552C103.102 32.4352 103.065 31.7086 102.992 30.6752C102.925 29.6352 102.865 28.4919 102.812 27.2452C102.759 25.9986 102.715 24.8319 102.682 23.7452C102.575 23.9919 102.469 24.2286 102.362 24.4552C102.255 24.6819 102.169 24.9186 102.102 25.1652L91.8319 52.6052ZM131.272 52.9152C128.705 52.9152 126.439 52.3452 124.472 51.2052C122.512 50.0652 120.985 48.4519 119.892 46.3652C118.805 44.2719 118.262 41.8052 118.262 38.9652C118.262 36.5052 118.805 34.2052 119.892 32.0652C120.985 29.9252 122.522 28.1952 124.502 26.8752C126.482 25.5619 128.789 24.9052 131.422 24.9052C132.902 24.9052 134.342 25.1086 135.742 25.5152C137.149 25.9152 138.422 26.6086 139.562 27.5952C140.702 28.5752 141.615 29.9086 142.302 31.5952C142.982 33.2752 143.305 35.3819 143.272 37.9152L126.002 38.2252C126.002 40.1186 126.239 41.8219 126.712 43.3352C127.185 44.8419 127.965 46.0352 129.052 46.9152C130.145 47.7952 131.602 48.2352 133.422 48.2352C134.129 48.2352 134.929 48.1119 135.822 47.8652C136.715 47.6186 137.629 47.2052 138.562 46.6252C139.489 46.0452 140.355 45.2652 141.162 44.2852L143.532 46.4952C142.272 48.2819 140.922 49.6419 139.482 50.5752C138.042 51.5019 136.612 52.1252 135.192 52.4452C133.772 52.7586 132.465 52.9152 131.272 52.9152ZM126.322 34.5452H136.002C135.969 33.0652 135.769 31.8952 135.402 31.0352C135.035 30.1752 134.535 29.5519 133.902 29.1652C133.269 28.7852 132.532 28.5952 131.692 28.5952C130.145 28.5952 128.932 29.1452 128.052 30.2452C127.179 31.3519 126.602 32.7852 126.322 34.5452ZM160.912 52.0752H147.112V48.6552C148.099 48.6552 148.802 48.4619 149.222 48.0752C149.642 47.6886 149.915 47.1352 150.042 46.4152C150.162 45.6952 150.222 44.8786 150.222 43.9652V35.1152C150.222 34.4886 150.239 33.7786 150.272 32.9852C150.312 32.1986 150.365 31.4186 150.432 30.6452C149.872 30.6786 149.215 30.7052 148.462 30.7252C147.709 30.7386 147.139 30.7652 146.752 30.8052V26.8052C148.365 26.8052 149.732 26.7152 150.852 26.5352C151.979 26.3619 152.865 26.1519 153.512 25.9052C154.165 25.6586 154.612 25.4319 154.852 25.2252H157.432C157.505 25.6786 157.542 26.0119 157.542 26.2252C157.542 26.4319 157.552 26.6319 157.572 26.8252C157.585 27.0186 157.645 27.3619 157.752 27.8552C158.452 27.2952 159.259 26.7952 160.172 26.3552C161.085 25.9152 161.999 25.5619 162.912 25.2952C163.825 25.0352 164.632 24.9052 165.332 24.9052C168.565 24.9052 170.855 25.8252 172.202 27.6652C173.555 29.5119 174.232 32.4719 174.232 36.5452V43.5952C174.232 44.0886 174.215 44.7819 174.182 45.6752C174.149 46.5686 174.095 47.4219 174.022 48.2352C174.622 48.1619 175.255 48.1152 175.922 48.0952C176.589 48.0819 177.095 48.0752 177.442 48.0752V52.0752H163.652V48.6552C164.632 48.6552 165.342 48.4619 165.782 48.0752C166.222 47.6886 166.502 47.1352 166.622 46.4152C166.749 45.6952 166.812 44.8786 166.812 43.9652L166.752 36.4852C166.752 34.2052 166.429 32.5119 165.782 31.4052C165.135 30.2986 164.039 29.7452 162.492 29.7452C161.612 29.7452 160.742 29.9386 159.882 30.3252C159.022 30.7119 158.295 31.1686 157.702 31.6952C157.702 32.1886 157.702 32.6886 157.702 33.1952C157.702 33.7086 157.702 34.2086 157.702 34.6952V43.5952C157.702 44.0886 157.682 44.7819 157.642 45.6752C157.609 46.5686 157.559 47.4219 157.492 48.2352C158.052 48.1619 158.675 48.1152 159.362 48.0952C160.042 48.0819 160.559 48.0752 160.912 48.0752V52.0752ZM191.132 52.9152C190.079 52.9152 189.062 52.7919 188.082 52.5452C187.095 52.2986 186.219 51.8352 185.452 51.1552C184.679 50.4686 184.062 49.4586 183.602 48.1252C183.149 46.7919 182.922 45.0186 182.922 42.8052L183.022 30.1152H179.442V25.7452C180.535 25.7119 181.589 25.3452 182.602 24.6452C183.622 23.9386 184.492 23.0252 185.212 21.9052C185.932 20.7786 186.415 19.6019 186.662 18.3752H190.552L190.502 25.7452H197.192V29.8052L190.502 29.9552L190.452 42.9152C190.452 43.7219 190.529 44.5186 190.682 45.3052C190.842 46.0986 191.152 46.7486 191.612 47.2552C192.065 47.7619 192.732 48.0152 193.612 48.0152C194.099 48.0152 194.772 47.8419 195.632 47.4952C196.492 47.1419 197.415 46.2652 198.402 44.8652L200.932 47.2252C199.979 48.6319 198.995 49.7219 197.982 50.4952C196.962 51.2686 195.985 51.8286 195.052 52.1752C194.125 52.5286 193.312 52.7419 192.612 52.8152C191.905 52.8819 191.412 52.9152 191.132 52.9152ZM215.352 52.9152C212.825 52.9152 210.545 52.3719 208.512 51.2852C206.472 50.1986 204.865 48.6452 203.692 46.6252C202.519 44.6052 201.932 42.2252 201.932 39.4852C201.932 36.5719 202.535 34.0186 203.742 31.8252C204.955 29.6319 206.572 27.9319 208.592 26.7252C210.605 25.5119 212.805 24.9052 215.192 24.9052C217.725 24.9052 219.992 25.4486 221.992 26.5352C223.992 27.6219 225.572 29.1752 226.732 31.1952C227.885 33.2152 228.462 35.6286 228.462 38.4352C228.462 41.3819 227.902 43.9452 226.782 46.1252C225.655 48.2986 224.109 49.9752 222.142 51.1552C220.182 52.3286 217.919 52.9152 215.352 52.9152ZM215.562 49.1752C216.969 49.1419 218.032 48.6519 218.752 47.7052C219.472 46.7586 219.972 45.5652 220.252 44.1252C220.532 42.6852 220.672 41.2286 220.672 39.7552C220.672 38.4552 220.575 37.1386 220.382 35.8052C220.189 34.4719 219.882 33.2619 219.462 32.1752C219.042 31.0819 218.472 30.2019 217.752 29.5352C217.032 28.8686 216.145 28.5552 215.092 28.5952C213.725 28.6286 212.645 29.1186 211.852 30.0652C211.065 31.0119 210.505 32.1952 210.172 33.6152C209.839 35.0419 209.672 36.5252 209.672 38.0652C209.672 39.8586 209.865 41.6152 210.252 43.3352C210.632 45.0552 211.252 46.4686 212.112 47.5752C212.972 48.6819 214.122 49.2152 215.562 49.1752ZM250.632 52.0752H232.732V48.5952C233.539 48.5619 234.212 48.4586 234.752 48.2852C235.299 48.1052 235.722 47.7019 236.022 47.0752C236.322 46.4419 236.472 45.4219 236.472 44.0152V23.8552C236.472 22.9086 236.499 21.9952 236.552 21.1152C236.599 20.2352 236.642 19.5686 236.682 19.1152C236.115 19.1486 235.412 19.1752 234.572 19.1952C233.732 19.2086 233.119 19.2352 232.732 19.2752V15.2152C235.152 15.1819 237.582 15.1652 240.022 15.1652C242.462 15.1652 244.892 15.1486 247.312 15.1152C251.525 15.0752 254.869 15.8552 257.342 17.4552C259.815 19.0552 260.965 21.4686 260.792 24.6952C260.725 25.7152 260.409 26.7052 259.842 27.6652C259.282 28.6319 258.449 29.5019 257.342 30.2752C256.235 31.0486 254.859 31.6619 253.212 32.1152V32.1752C256.719 32.7352 259.299 33.9019 260.952 35.6752C262.599 37.4486 263.422 39.4219 263.422 41.5952C263.422 43.8752 262.872 45.7986 261.772 47.3652C260.665 48.9252 259.145 50.0986 257.212 50.8852C255.285 51.6786 253.092 52.0752 250.632 52.0752ZM243.892 48.3352C244.525 48.3352 245.122 48.3352 245.682 48.3352C246.242 48.3352 246.805 48.3252 247.372 48.3052C247.932 48.2919 248.475 48.2852 249.002 48.2852C251.142 48.1786 252.702 47.4919 253.682 46.2252C254.669 44.9652 255.162 43.3686 255.162 41.4352C255.162 39.8219 254.829 38.5519 254.162 37.6252C253.495 36.6919 252.642 36.0319 251.602 35.6452C250.569 35.2586 249.492 35.0652 248.372 35.0652C247.492 35.0652 246.735 35.0652 246.102 35.0652C245.469 35.0652 244.802 35.0819 244.102 35.1152V43.7052C244.102 44.6519 244.085 45.5452 244.052 46.3852C244.019 47.2319 243.965 47.8819 243.892 48.3352ZM244.102 23.2152V31.3852L246.842 31.3252C248.315 31.2919 249.482 30.9586 250.342 30.3252C251.202 29.6986 251.815 28.8486 252.182 27.7752C252.555 26.7019 252.742 25.5352 252.742 24.2752C252.742 22.8686 252.459 21.7719 251.892 20.9852C251.332 20.1919 250.632 19.6219 249.792 19.2752C248.945 18.9219 248.065 18.7619 247.152 18.7952C246.592 18.7952 246.085 18.8852 245.632 19.0652C245.172 19.2386 244.802 19.6319 244.522 20.2452C244.242 20.8586 244.102 21.8486 244.102 23.2152ZM267.062 52.0752V48.6552C268.042 48.6552 268.742 48.4619 269.162 48.0752C269.589 47.6886 269.862 47.1352 269.982 46.4152C270.102 45.6952 270.162 44.8786 270.162 43.9652V35.1152C270.162 34.4886 270.182 33.7786 270.222 32.9852C270.255 32.1986 270.305 31.4186 270.372 30.6452C269.812 30.6786 269.155 30.7052 268.402 30.7252C267.649 30.7386 267.079 30.7652 266.692 30.8052V26.8052H268.792C270.165 26.8052 271.422 26.6286 272.562 26.2752C273.702 25.9219 274.449 25.5719 274.802 25.2252H277.382C277.449 25.5719 277.502 26.2286 277.542 27.1952C277.575 28.1619 277.592 29.0119 277.592 29.7452C278.539 28.5919 279.432 27.6619 280.272 26.9552C281.119 26.2552 281.952 25.7386 282.772 25.4052C283.599 25.0719 284.435 24.9052 285.282 24.9052C286.509 24.9052 287.579 25.2486 288.492 25.9352C289.405 26.6152 289.862 27.7286 289.862 29.2752C289.862 29.8019 289.739 30.3552 289.492 30.9352C289.245 31.5152 288.859 31.9986 288.332 32.3852C287.805 32.7719 287.085 32.9652 286.172 32.9652C285.472 32.9652 284.752 32.7519 284.012 32.3252C283.279 31.9052 282.859 31.0986 282.752 29.9052C282.045 29.9052 281.342 30.1952 280.642 30.7752C279.942 31.3552 279.319 32.0386 278.772 32.8252C278.232 33.6186 277.855 34.3486 277.642 35.0152V43.5952C277.642 44.0886 277.625 44.7819 277.592 45.6752C277.559 46.5686 277.505 47.4219 277.432 48.2352C277.992 48.1619 278.615 48.1152 279.302 48.0952C279.989 48.0819 280.505 48.0752 280.852 48.0752V52.0752H267.062ZM292.332 52.0752V48.6552C293.312 48.6552 294.015 48.4619 294.442 48.0752C294.862 47.6886 295.132 47.1352 295.252 46.4152C295.379 45.6952 295.442 44.8786 295.442 43.9652V35.2252C295.442 34.5919 295.459 33.8619 295.492 33.0352C295.525 32.2152 295.579 31.4186 295.652 30.6452C295.092 30.6786 294.432 30.7052 293.672 30.7252C292.919 30.7386 292.349 30.7652 291.962 30.8052V26.8052C293.575 26.8052 294.945 26.7152 296.072 26.5352C297.192 26.3619 298.079 26.1519 298.732 25.9052C299.379 25.6586 299.825 25.4319 300.072 25.2252H302.912V43.5952C302.912 44.0886 302.895 44.7819 302.862 45.6752C302.829 46.5686 302.775 47.4219 302.702 48.2352C303.269 48.1619 303.892 48.1152 304.572 48.0952C305.259 48.0819 305.779 48.0752 306.132 48.0752V52.0752H292.332ZM298.912 21.0652C297.719 21.0652 296.735 20.6419 295.962 19.7952C295.195 18.9552 294.812 17.9386 294.812 16.7452C294.812 15.5519 295.215 14.5319 296.022 13.6852C296.829 12.8452 297.775 12.4252 298.862 12.4252C299.982 12.4252 300.922 12.8452 301.682 13.6852C302.435 14.5319 302.812 15.5519 302.812 16.7452C302.812 17.9386 302.462 18.9552 301.762 19.7952C301.055 20.6419 300.105 21.0652 298.912 21.0652ZM319.712 52.9152C317.605 52.9152 315.755 52.3719 314.162 51.2852C312.562 50.1986 311.315 48.6552 310.422 46.6552C309.522 44.6486 309.072 42.2952 309.072 39.5952C309.072 36.7552 309.619 34.2286 310.712 32.0152C311.799 29.8019 313.325 28.0652 315.292 26.8052C317.259 25.5386 319.539 24.9052 322.132 24.9052C323.079 24.9052 323.932 25.0019 324.692 25.1952C325.445 25.3886 326.155 25.6086 326.822 25.8552V22.3752C326.822 21.8886 326.839 21.1886 326.872 20.2752C326.905 19.3619 326.959 18.5186 327.032 17.7452C326.472 17.7786 325.805 17.8119 325.032 17.8452C324.259 17.8852 323.679 17.9052 323.292 17.9052V13.9052C324.945 13.9052 326.322 13.8152 327.422 13.6352C328.529 13.4619 329.409 13.2519 330.062 13.0052C330.709 12.7586 331.155 12.5319 331.402 12.3252H334.242V43.5952C334.242 44.0886 334.225 44.7819 334.192 45.6752C334.159 46.5686 334.105 47.4219 334.032 48.2352C334.632 48.1619 335.265 48.1152 335.932 48.0952C336.599 48.0819 337.105 48.0752 337.452 48.0752V52.0752H327.452C327.419 51.6886 327.375 51.2852 327.322 50.8652C327.269 50.4452 327.205 50.0419 327.132 49.6552C325.979 50.8486 324.785 51.6886 323.552 52.1752C322.325 52.6686 321.045 52.9152 319.712 52.9152ZM322.452 48.1252C323.365 48.1252 324.209 47.8886 324.982 47.4152C325.749 46.9419 326.362 46.3352 326.822 45.5952C326.822 45.0686 326.822 44.5419 326.822 44.0152C326.822 43.4886 326.822 42.9619 326.822 42.4352V29.8052C326.469 29.5252 325.942 29.2886 325.242 29.0952C324.542 28.9019 323.822 28.8052 323.082 28.8052C321.469 28.8386 320.205 29.3452 319.292 30.3252C318.379 31.3119 317.739 32.5586 317.372 34.0652C316.999 35.5786 316.812 37.1586 316.812 38.8052C316.812 40.2786 316.999 41.7352 317.372 43.1752C317.739 44.6152 318.335 45.7986 319.162 46.7252C319.982 47.6586 321.079 48.1252 322.452 48.1252ZM352.252 66.3452C349.232 66.3452 346.845 66.0186 345.092 65.3652C343.339 64.7186 342.092 63.8686 341.352 62.8152C340.612 61.7619 340.242 60.6386 340.242 59.4452C340.242 58.7052 340.402 57.9686 340.722 57.2352C341.035 56.4952 341.552 55.7852 342.272 55.1052C342.992 54.4186 343.985 53.8452 345.252 53.3852C343.812 53.0052 342.802 52.3852 342.222 51.5252C341.642 50.6652 341.352 49.7419 341.352 48.7552C341.352 47.8419 341.722 46.8152 342.462 45.6752C343.195 44.5352 344.529 43.6686 346.462 43.0752C344.989 42.4752 343.775 41.5419 342.822 40.2752C341.875 39.0152 341.369 37.4886 341.302 35.6952C341.229 33.5886 341.755 31.7219 342.882 30.0952C344.002 28.4619 345.475 27.1886 347.302 26.2752C349.129 25.3619 351.042 24.9052 353.042 24.9052C353.955 24.9052 355.009 25.0286 356.202 25.2752C357.395 25.5219 358.429 25.9419 359.302 26.5352C359.689 25.4486 360.192 24.4219 360.812 23.4552C361.425 22.4886 362.169 21.6986 363.042 21.0852C363.922 20.4719 364.905 20.1652 365.992 20.1652C367.185 20.1652 368.089 20.4719 368.702 21.0852C369.315 21.6986 369.622 22.5152 369.622 23.5352C369.622 23.9552 369.529 24.4219 369.342 24.9352C369.149 25.4419 368.812 25.8719 368.332 26.2252C367.859 26.5719 367.202 26.7452 366.362 26.7452C365.835 26.7452 365.309 26.5452 364.782 26.1452C364.255 25.7386 363.939 25.2552 363.832 24.6952C363.379 24.8352 362.922 25.2919 362.462 26.0652C362.009 26.8386 361.745 27.5219 361.672 28.1152C362.692 28.9952 363.465 30.0152 363.992 31.1752C364.519 32.3286 364.782 33.5719 364.782 34.9052C364.782 36.9452 364.212 38.7452 363.072 40.3052C361.932 41.8652 360.459 43.0952 358.652 43.9952C356.845 44.8886 354.905 45.3352 352.832 45.3352C352.372 45.3352 351.862 45.3086 351.302 45.2552C350.742 45.2019 350.199 45.1752 349.672 45.1752C348.899 45.1752 348.249 45.3152 347.722 45.5952C347.195 45.8752 346.932 46.2619 346.932 46.7552C346.932 47.4219 347.442 47.8786 348.462 48.1252C349.482 48.3719 351.219 48.5652 353.672 48.7052C356.379 48.8452 358.739 49.1886 360.752 49.7352C362.772 50.2752 364.345 51.1252 365.472 52.2852C366.592 53.4452 367.152 55.0419 367.152 57.0752C367.152 58.5819 366.712 59.9086 365.832 61.0552C364.959 62.1952 363.792 63.1586 362.332 63.9452C360.879 64.7386 359.272 65.3352 357.512 65.7352C355.759 66.1419 354.005 66.3452 352.252 66.3452ZM353.782 62.7052C356.269 62.7052 358.155 62.2519 359.442 61.3452C360.722 60.4319 361.362 59.4819 361.362 58.4952C361.362 57.7619 361.082 57.1586 360.522 56.6852C359.955 56.2052 359.119 55.8252 358.012 55.5452C356.912 55.2652 355.502 55.0919 353.782 55.0252C353.009 54.9519 352.112 54.8986 351.092 54.8652C350.072 54.8319 349.179 54.7452 348.412 54.6052C347.885 55.0252 347.479 55.5519 347.192 56.1852C346.912 56.8119 346.755 57.4252 346.722 58.0252C346.655 59.4252 347.262 60.5552 348.542 61.4152C349.822 62.2752 351.569 62.7052 353.782 62.7052ZM353.042 41.8052C353.989 41.8052 354.785 41.5086 355.432 40.9152C356.085 40.3152 356.579 39.5586 356.912 38.6452C357.245 37.7319 357.412 36.8019 357.412 35.8552C357.412 34.6286 357.255 33.4452 356.942 32.3052C356.622 31.1652 356.139 30.2352 355.492 29.5152C354.839 28.7952 354.005 28.4352 352.992 28.4352C351.585 28.4352 350.495 29.0652 349.722 30.3252C348.949 31.5919 348.562 33.0319 348.562 34.6452C348.562 35.8719 348.739 37.0386 349.092 38.1452C349.445 39.2519 349.955 40.1386 350.622 40.8052C351.289 41.4719 352.095 41.8052 353.042 41.8052ZM382.742 52.9152C380.175 52.9152 377.909 52.3452 375.942 51.2052C373.975 50.0652 372.449 48.4519 371.362 46.3652C370.275 44.2719 369.732 41.8052 369.732 38.9652C369.732 36.5052 370.275 34.2052 371.362 32.0652C372.449 29.9252 373.985 28.1952 375.972 26.8752C377.952 25.5619 380.259 24.9052 382.892 24.9052C384.365 24.9052 385.805 25.1086 387.212 25.5152C388.619 25.9152 389.892 26.6086 391.032 27.5952C392.172 28.5752 393.085 29.9086 393.772 31.5952C394.452 33.2752 394.775 35.3819 394.742 37.9152L377.472 38.2252C377.472 40.1186 377.709 41.8219 378.182 43.3352C378.655 44.8419 379.435 46.0352 380.522 46.9152C381.615 47.7952 383.072 48.2352 384.892 48.2352C385.599 48.2352 386.399 48.1119 387.292 47.8652C388.185 47.6186 389.099 47.2052 390.032 46.6252C390.959 46.0452 391.825 45.2652 392.632 44.2852L395.002 46.4952C393.742 48.2819 392.392 49.6419 390.952 50.5752C389.512 51.5019 388.082 52.1252 386.662 52.4452C385.242 52.7586 383.935 52.9152 382.742 52.9152ZM377.792 34.5452H387.472C387.439 33.0652 387.239 31.8952 386.872 31.0352C386.505 30.1752 386.005 29.5519 385.372 29.1652C384.739 28.7852 384.002 28.5952 383.162 28.5952C381.615 28.5952 380.402 29.1452 379.522 30.2452C378.649 31.3519 378.072 32.7852 377.792 34.5452Z" fill="white"/>
</g>
<defs>
<clipPath id="clip0_1_20">
<rect width="58.9588" height="60.541" fill="white"/>
</clipPath>
<clipPath id="clip1_1_20">
<rect width="327.08" height="54.02" fill="white" transform="translate(67.9219 12.3252)"/>
</clipPath>
</defs>
</svg>
